<svg xmlns="http://www.w3.org/2000/svg" viewBox="0 0 1488 1057" role="img" aria-label="プレースホルダー: 発注履歴画面">
  <rect width="1488" height="1057" fill="#f3f6f8"/>
  <rect x="60" y="60" width="1368" height="937" rx="18" fill="#ffffff" stroke="#e0e0e0"/>

  <!-- sidebar -->
  <rect x="60" y="60" width="300" height="937" rx="18" fill="#fafbfc"/>
  <rect x="60" y="60" width="30" height="937" fill="#fafbfc"/>
  <rect x="100" y="140" width="160" height="16" rx="4" fill="#00b8d4"/>
  <rect x="100" y="170" width="220" height="24" rx="4" fill="#0a0a0a" opacity="0.85"/>

  <g transform="translate(100 240)">
    <rect x="0" y="0" width="220" height="54" rx="10" fill="#ffffff" stroke="#eceff1"/>
    <rect x="20" y="22" width="160" height="12" rx="3" fill="#0a0a0a" opacity="0.85"/>
    <circle cx="200" cy="27" r="4" fill="#00b8d4"/>

    <rect x="0" y="64" width="220" height="54" rx="10" fill="#ffffff" stroke="#eceff1"/>
    <rect x="20" y="86" width="140" height="12" rx="3" fill="#616161"/>

    <rect x="0" y="128" width="220" height="54" rx="10" fill="#ffffff" stroke="#eceff1"/>
    <rect x="20" y="150" width="120" height="12" rx="3" fill="#616161"/>

    <rect x="0" y="192" width="220" height="54" rx="10" fill="#ffffff" stroke="#eceff1"/>
    <rect x="20" y="214" width="160" height="12" rx="3" fill="#616161"/>

    <rect x="0" y="256" width="220" height="54" rx="10" fill="#ffffff" stroke="#eceff1"/>
    <rect x="20" y="278" width="100" height="12" rx="3" fill="#616161"/>
  </g>

  <g transform="translate(100 600)">
    <rect x="0" y="0" width="80" height="12" rx="3" fill="#9e9e9e"/>
    <rect x="0" y="24" width="220" height="54" rx="10" fill="#ffffff" stroke="#eceff1"/>
    <rect x="20" y="46" width="160" height="12" rx="3" fill="#616161"/>

    <rect x="0" y="100" width="80" height="12" rx="3" fill="#9e9e9e"/>
    <rect x="0" y="124" width="220" height="54" rx="10" fill="#ffffff" stroke="#eceff1"/>
    <rect x="20" y="146" width="120" height="12" rx="3" fill="#616161"/>
  </g>

  <line x1="360" y1="60" x2="360" y2="997" stroke="#e0e0e0"/>

  <!-- main area -->
  <rect x="400" y="120" width="260" height="20" rx="4" fill="#00b8d4"/>
  <rect x="400" y="156" width="420" height="32" rx="6" fill="#0a0a0a" opacity="0.85"/>

  <g transform="translate(1180 130)">
    <rect x="0" y="0" width="200" height="48" rx="10" fill="#ffffff" stroke="#0a0a0a"/>
    <rect x="30" y="18" width="110" height="12" rx="3" fill="#0a0a0a"/>
    <path d="M160 18 l14 0 l0 12 M160 30 l14 -12" stroke="#0a0a0a" stroke-width="2" fill="none" stroke-linecap="round"/>
  </g>

  <!-- cards list -->
  <g transform="translate(400 240)">
    <rect x="0" y="0" width="980" height="130" rx="14" fill="#ffffff" stroke="#eceff1"/>
    <rect x="28" y="30" width="80" height="14" rx="3" fill="#9e9e9e"/>
    <rect x="28" y="58" width="260" height="18" rx="4" fill="#0a0a0a" opacity="0.85"/>
    <rect x="320" y="58" width="320" height="18" rx="4" fill="#616161"/>
    <rect x="780" y="46" width="168" height="44" rx="22" fill="#e6f6f9"/>
    <rect x="820" y="62" width="88" height="10" rx="3" fill="#0097a7"/>
  </g>
  <g transform="translate(400 388)">
    <rect x="0" y="0" width="980" height="130" rx="14" fill="#ffffff" stroke="#eceff1"/>
    <rect x="28" y="30" width="80" height="14" rx="3" fill="#9e9e9e"/>
    <rect x="28" y="58" width="220" height="18" rx="4" fill="#0a0a0a" opacity="0.85"/>
    <rect x="280" y="58" width="340" height="18" rx="4" fill="#616161"/>
    <rect x="780" y="46" width="168" height="44" rx="22" fill="#f1f4f6"/>
    <rect x="820" y="62" width="88" height="10" rx="3" fill="#616161"/>
  </g>
  <g transform="translate(400 536)">
    <rect x="0" y="0" width="980" height="130" rx="14" fill="#ffffff" stroke="#eceff1"/>
    <rect x="28" y="30" width="80" height="14" rx="3" fill="#9e9e9e"/>
    <rect x="28" y="58" width="300" height="18" rx="4" fill="#0a0a0a" opacity="0.85"/>
    <rect x="360" y="58" width="280" height="18" rx="4" fill="#616161"/>
    <rect x="780" y="46" width="168" height="44" rx="22" fill="#fff5e6"/>
    <rect x="820" y="62" width="88" height="10" rx="3" fill="#c88200"/>
  </g>
  <g transform="translate(400 684)">
    <rect x="0" y="0" width="980" height="130" rx="14" fill="#ffffff" stroke="#eceff1"/>
    <rect x="28" y="30" width="80" height="14" rx="3" fill="#9e9e9e"/>
    <rect x="28" y="58" width="180" height="18" rx="4" fill="#0a0a0a" opacity="0.85"/>
    <rect x="240" y="58" width="400" height="18" rx="4" fill="#616161"/>
    <rect x="780" y="46" width="168" height="44" rx="22" fill="#e6f6f9"/>
    <rect x="820" y="62" width="88" height="10" rx="3" fill="#0097a7"/>
  </g>
  <g transform="translate(400 832)">
    <rect x="0" y="0" width="980" height="130" rx="14" fill="#ffffff" stroke="#eceff1"/>
    <rect x="28" y="30" width="80" height="14" rx="3" fill="#9e9e9e"/>
    <rect x="28" y="58" width="240" height="18" rx="4" fill="#0a0a0a" opacity="0.85"/>
    <rect x="300" y="58" width="320" height="18" rx="4" fill="#616161"/>
    <rect x="780" y="46" width="168" height="44" rx="22" fill="#f1f4f6"/>
    <rect x="820" y="62" width="88" height="10" rx="3" fill="#616161"/>
  </g>
</svg>
