<svg xmlns="http://www.w3.org/2000/svg" viewBox="0 0 1488 1057" role="img" aria-label="プレースホルダー: 発注管理画面">
  <rect width="1488" height="1057" fill="#f3f6f8"/>
  <rect x="60" y="60" width="1368" height="937" rx="18" fill="#ffffff" stroke="#e0e0e0"/>

  <rect x="100" y="120" width="200" height="20" rx="4" fill="#00b8d4"/>
  <rect x="100" y="156" width="420" height="32" rx="6" fill="#0a0a0a" opacity="0.85"/>

  <!-- status tabs -->
  <g transform="translate(100 220)">
    <rect x="0" y="0" width="140" height="48" rx="10" fill="#0a0a0a"/>
    <rect x="40" y="20" width="60" height="10" rx="2" fill="#ffffff"/>
    <rect x="160" y="0" width="140" height="48" rx="10" fill="#ffffff" stroke="#e0e0e0"/>
    <rect x="200" y="20" width="60" height="10" rx="2" fill="#616161"/>
    <rect x="320" y="0" width="140" height="48" rx="10" fill="#ffffff" stroke="#e0e0e0"/>
    <rect x="360" y="20" width="60" height="10" rx="2" fill="#616161"/>
    <rect x="480" y="0" width="140" height="48" rx="10" fill="#ffffff" stroke="#e0e0e0"/>
    <rect x="520" y="20" width="60" height="10" rx="2" fill="#616161"/>
    <rect x="640" y="0" width="140" height="48" rx="10" fill="#ffffff" stroke="#e0e0e0"/>
    <rect x="680" y="20" width="60" height="10" rx="2" fill="#616161"/>
  </g>

  <!-- table header -->
  <g transform="translate(100 300)">
    <rect x="0" y="0" width="1288" height="44" rx="8" fill="#fafbfc"/>
    <rect x="28" y="16" width="80" height="12" rx="3" fill="#616161"/>
    <rect x="240" y="16" width="80" height="12" rx="3" fill="#616161"/>
    <rect x="480" y="16" width="60" height="12" rx="3" fill="#616161"/>
    <rect x="720" y="16" width="80" height="12" rx="3" fill="#616161"/>
    <rect x="960" y="16" width="60" height="12" rx="3" fill="#616161"/>
    <rect x="1120" y="16" width="60" height="12" rx="3" fill="#616161"/>
  </g>

  <!-- rows -->
  <g transform="translate(100 364)">
    <g>
      <rect x="0" y="0" width="1288" height="80" fill="#ffffff"/>
      <line x1="0" y1="80" x2="1288" y2="80" stroke="#eceff1"/>
      <rect x="28" y="32" width="140" height="16" rx="4" fill="#0a0a0a" opacity="0.85"/>
      <rect x="240" y="32" width="160" height="16" rx="4" fill="#616161"/>
      <rect x="480" y="32" width="100" height="16" rx="4" fill="#616161"/>
      <rect x="720" y="32" width="100" height="16" rx="4" fill="#616161"/>
      <rect x="960" y="28" width="96" height="28" rx="14" fill="#e6f6f9"/>
      <rect x="982" y="38" width="52" height="8" rx="2" fill="#0097a7"/>
      <rect x="1120" y="28" width="120" height="28" rx="6" fill="#0a0a0a"/>
      <rect x="1152" y="40" width="56" height="6" rx="2" fill="#ffffff"/>
    </g>
    <g transform="translate(0 80)">
      <rect x="0" y="0" width="1288" height="80" fill="#ffffff"/>
      <line x1="0" y1="80" x2="1288" y2="80" stroke="#eceff1"/>
      <rect x="28" y="32" width="180" height="16" rx="4" fill="#0a0a0a" opacity="0.85"/>
      <rect x="240" y="32" width="140" height="16" rx="4" fill="#616161"/>
      <rect x="480" y="32" width="100" height="16" rx="4" fill="#616161"/>
      <rect x="720" y="32" width="100" height="16" rx="4" fill="#616161"/>
      <rect x="960" y="28" width="96" height="28" rx="14" fill="#fff5e6"/>
      <rect x="982" y="38" width="52" height="8" rx="2" fill="#c88200"/>
      <rect x="1120" y="28" width="120" height="28" rx="6" fill="#f1f4f6"/>
      <rect x="1152" y="40" width="56" height="6" rx="2" fill="#616161"/>
    </g>
    <g transform="translate(0 160)">
      <rect x="0" y="0" width="1288" height="80" fill="#ffffff"/>
      <line x1="0" y1="80" x2="1288" y2="80" stroke="#eceff1"/>
      <rect x="28" y="32" width="120" height="16" rx="4" fill="#0a0a0a" opacity="0.85"/>
      <rect x="240" y="32" width="180" height="16" rx="4" fill="#616161"/>
      <rect x="480" y="32" width="100" height="16" rx="4" fill="#616161"/>
      <rect x="720" y="32" width="100" height="16" rx="4" fill="#616161"/>
      <rect x="960" y="28" width="96" height="28" rx="14" fill="#e6f6f9"/>
      <rect x="982" y="38" width="52" height="8" rx="2" fill="#0097a7"/>
      <rect x="1120" y="28" width="120" height="28" rx="6" fill="#f1f4f6"/>
    </g>
    <g transform="translate(0 240)">
      <rect x="0" y="0" width="1288" height="80" fill="#ffffff"/>
      <line x1="0" y1="80" x2="1288" y2="80" stroke="#eceff1"/>
      <rect x="28" y="32" width="160" height="16" rx="4" fill="#0a0a0a" opacity="0.85"/>
      <rect x="240" y="32" width="120" height="16" rx="4" fill="#616161"/>
      <rect x="480" y="32" width="100" height="16" rx="4" fill="#616161"/>
      <rect x="720" y="32" width="100" height="16" rx="4" fill="#616161"/>
      <rect x="960" y="28" width="96" height="28" rx="14" fill="#f3f6f8"/>
      <rect x="982" y="38" width="52" height="8" rx="2" fill="#616161"/>
      <rect x="1120" y="28" width="120" height="28" rx="6" fill="#f1f4f6"/>
    </g>
    <g transform="translate(0 320)">
      <rect x="0" y="0" width="1288" height="80" fill="#ffffff"/>
      <rect x="28" y="32" width="140" height="16" rx="4" fill="#0a0a0a" opacity="0.85"/>
      <rect x="240" y="32" width="160" height="16" rx="4" fill="#616161"/>
      <rect x="480" y="32" width="100" height="16" rx="4" fill="#616161"/>
      <rect x="720" y="32" width="100" height="16" rx="4" fill="#616161"/>
      <rect x="960" y="28" width="96" height="28" rx="14" fill="#fdecec"/>
      <rect x="982" y="38" width="52" height="8" rx="2" fill="#c0393d"/>
      <rect x="1120" y="28" width="120" height="28" rx="6" fill="#f1f4f6"/>
    </g>
  </g>

  <!-- timeline detail panel -->
  <g transform="translate(100 800)">
    <rect x="0" y="0" width="1288" height="160" rx="14" fill="#fafbfc" stroke="#eceff1"/>
    <rect x="28" y="24" width="120" height="12" rx="3" fill="#00b8d4"/>
    <rect x="28" y="46" width="260" height="18" rx="4" fill="#0a0a0a" opacity="0.85"/>
    <g transform="translate(28 90)">
      <circle cx="8" cy="8" r="6" fill="#00b8d4"/>
      <line x1="8" y1="16" x2="8" y2="42" stroke="#eceff1" stroke-width="2"/>
      <rect x="28" y="0" width="160" height="10" rx="2" fill="#0a0a0a" opacity="0.85"/>
      <rect x="200" y="0" width="80" height="10" rx="2" fill="#616161"/>
    </g>
    <g transform="translate(28 130)">
      <circle cx="8" cy="8" r="6" fill="#00b8d4"/>
      <rect x="28" y="0" width="200" height="10" rx="2" fill="#0a0a0a" opacity="0.85"/>
      <rect x="240" y="0" width="80" height="10" rx="2" fill="#616161"/>
    </g>
  </g>
</svg>
