<svg xmlns="http://www.w3.org/2000/svg" viewBox="0 0 1488 1057" role="img" aria-label="プレースホルダー: 資材マスタ登録画面">
  <rect width="1488" height="1057" fill="#f3f6f8"/>
  <rect x="60" y="60" width="1368" height="937" rx="18" fill="#ffffff" stroke="#e0e0e0"/>
  <rect x="100" y="120" width="260" height="20" rx="4" fill="#00b8d4"/>
  <rect x="100" y="156" width="420" height="32" rx="6" fill="#0a0a0a" opacity="0.85"/>
  <rect x="100" y="220" width="1288" height="60" rx="10" fill="#fafbfc"/>
  <rect x="128" y="244" width="120" height="12" rx="3" fill="#616161"/>
  <rect x="380" y="244" width="100" height="12" rx="3" fill="#616161"/>
  <rect x="600" y="244" width="100" height="12" rx="3" fill="#616161"/>
  <rect x="820" y="244" width="140" height="12" rx="3" fill="#616161"/>
  <g>
    <rect x="100" y="300" width="1288" height="110" fill="#ffffff" stroke="#eceff1"/>
    <rect x="128" y="336" width="90" height="40" rx="6" fill="#eceff1"/>
    <rect x="240" y="336" width="60" height="16" rx="4" fill="#e6f6f9"/>
    <rect x="252" y="342" width="36" height="4" rx="2" fill="#0097a7"/>
    <rect x="320" y="340" width="200" height="14" rx="3" fill="#0a0a0a" opacity="0.85"/>
    <rect x="320" y="364" width="140" height="10" rx="3" fill="#9e9e9e"/>
    <rect x="600" y="344" width="120" height="12" rx="3" fill="#616161"/>
    <rect x="820" y="344" width="160" height="12" rx="3" fill="#616161"/>
    <rect x="1290" y="340" width="60" height="24" rx="6" fill="#f1f4f6"/>
  </g>
  <g transform="translate(0 120)">
    <rect x="100" y="300" width="1288" height="110" fill="#ffffff" stroke="#eceff1"/>
    <rect x="128" y="336" width="90" height="40" rx="6" fill="#eceff1"/>
    <rect x="240" y="336" width="60" height="16" rx="4" fill="#e6f6f9"/>
    <rect x="252" y="342" width="36" height="4" rx="2" fill="#0097a7"/>
    <rect x="320" y="340" width="240" height="14" rx="3" fill="#0a0a0a" opacity="0.85"/>
    <rect x="320" y="364" width="180" height="10" rx="3" fill="#9e9e9e"/>
    <rect x="600" y="344" width="120" height="12" rx="3" fill="#616161"/>
    <rect x="820" y="344" width="160" height="12" rx="3" fill="#616161"/>
    <rect x="1290" y="340" width="60" height="24" rx="6" fill="#f1f4f6"/>
  </g>
  <g transform="translate(0 240)">
    <rect x="100" y="300" width="1288" height="110" fill="#ffffff" stroke="#eceff1"/>
    <rect x="128" y="336" width="90" height="40" rx="6" fill="#eceff1"/>
    <rect x="240" y="336" width="60" height="16" rx="4" fill="#fff5e6"/>
    <rect x="252" y="342" width="36" height="4" rx="2" fill="#c88200"/>
    <rect x="320" y="340" width="180" height="14" rx="3" fill="#0a0a0a" opacity="0.85"/>
    <rect x="320" y="364" width="220" height="10" rx="3" fill="#9e9e9e"/>
    <rect x="600" y="344" width="120" height="12" rx="3" fill="#616161"/>
    <rect x="820" y="344" width="160" height="12" rx="3" fill="#616161"/>
    <rect x="1290" y="340" width="60" height="24" rx="6" fill="#f1f4f6"/>
  </g>
  <g transform="translate(0 360)">
    <rect x="100" y="300" width="1288" height="110" fill="#ffffff" stroke="#eceff1"/>
    <rect x="128" y="336" width="90" height="40" rx="6" fill="#eceff1"/>
    <rect x="240" y="336" width="60" height="16" rx="4" fill="#e6f6f9"/>
    <rect x="252" y="342" width="36" height="4" rx="2" fill="#0097a7"/>
    <rect x="320" y="340" width="260" height="14" rx="3" fill="#0a0a0a" opacity="0.85"/>
    <rect x="320" y="364" width="120" height="10" rx="3" fill="#9e9e9e"/>
    <rect x="600" y="344" width="120" height="12" rx="3" fill="#616161"/>
    <rect x="820" y="344" width="160" height="12" rx="3" fill="#616161"/>
    <rect x="1290" y="340" width="60" height="24" rx="6" fill="#f1f4f6"/>
  </g>
  <g transform="translate(0 480)">
    <rect x="100" y="300" width="1288" height="110" fill="#ffffff" stroke="#eceff1"/>
    <rect x="128" y="336" width="90" height="40" rx="6" fill="#eceff1"/>
    <rect x="240" y="336" width="60" height="16" rx="4" fill="#e6f6f9"/>
    <rect x="252" y="342" width="36" height="4" rx="2" fill="#0097a7"/>
    <rect x="320" y="340" width="200" height="14" rx="3" fill="#0a0a0a" opacity="0.85"/>
    <rect x="320" y="364" width="160" height="10" rx="3" fill="#9e9e9e"/>
    <rect x="600" y="344" width="120" height="12" rx="3" fill="#616161"/>
    <rect x="820" y="344" width="160" height="12" rx="3" fill="#616161"/>
    <rect x="1290" y="340" width="60" height="24" rx="6" fill="#f1f4f6"/>
  </g>
</svg>
