<svg xmlns="http://www.w3.org/2000/svg" viewBox="0 0 1488 1057" role="img" aria-label="プレースホルダー: 顧客向けカタログサイト(タブレット)">
  <rect width="1488" height="1057" fill="#f3f6f8"/>
  <rect x="60" y="60" width="1368" height="937" rx="18" fill="#ffffff" stroke="#e0e0e0"/>

  <!-- header / categories -->
  <rect x="100" y="120" width="180" height="20" rx="4" fill="#00b8d4"/>
  <rect x="100" y="156" width="360" height="32" rx="6" fill="#0a0a0a" opacity="0.85"/>

  <g transform="translate(100 220)">
    <rect x="0" y="0" width="140" height="44" rx="22" fill="#0a0a0a"/>
    <rect x="40" y="18" width="60" height="8" rx="2" fill="#ffffff"/>
    <rect x="160" y="0" width="140" height="44" rx="22" fill="#ffffff" stroke="#e0e0e0"/>
    <rect x="200" y="18" width="60" height="8" rx="2" fill="#616161"/>
    <rect x="320" y="0" width="140" height="44" rx="22" fill="#ffffff" stroke="#e0e0e0"/>
    <rect x="360" y="18" width="60" height="8" rx="2" fill="#616161"/>
    <rect x="480" y="0" width="140" height="44" rx="22" fill="#ffffff" stroke="#e0e0e0"/>
    <rect x="520" y="18" width="60" height="8" rx="2" fill="#616161"/>
  </g>

  <!-- cards grid -->
  <g transform="translate(100 308)">
    <g>
      <rect x="0" y="0" width="300" height="360" rx="12" fill="#ffffff" stroke="#eceff1"/>
      <rect x="0" y="0" width="300" height="220" rx="12" fill="#eceff1"/>
      <rect x="24" y="244" width="180" height="16" rx="4" fill="#0a0a0a" opacity="0.85"/>
      <rect x="24" y="272" width="150" height="10" rx="3" fill="#9e9e9e"/>
      <rect x="24" y="308" width="100" height="28" rx="8" fill="#e6f6f9"/>
      <rect x="40" y="318" width="68" height="8" rx="2" fill="#0097a7"/>
    </g>
    <g transform="translate(320 0)">
      <rect x="0" y="0" width="300" height="360" rx="12" fill="#ffffff" stroke="#eceff1"/>
      <rect x="0" y="0" width="300" height="220" rx="12" fill="#eceff1"/>
      <rect x="24" y="244" width="200" height="16" rx="4" fill="#0a0a0a" opacity="0.85"/>
      <rect x="24" y="272" width="130" height="10" rx="3" fill="#9e9e9e"/>
      <rect x="24" y="308" width="100" height="28" rx="8" fill="#e6f6f9"/>
      <rect x="40" y="318" width="68" height="8" rx="2" fill="#0097a7"/>
    </g>
    <g transform="translate(640 0)">
      <rect x="0" y="0" width="300" height="360" rx="12" fill="#ffffff" stroke="#eceff1"/>
      <rect x="0" y="0" width="300" height="220" rx="12" fill="#eceff1"/>
      <rect x="24" y="244" width="160" height="16" rx="4" fill="#0a0a0a" opacity="0.85"/>
      <rect x="24" y="272" width="180" height="10" rx="3" fill="#9e9e9e"/>
      <rect x="24" y="308" width="100" height="28" rx="8" fill="#e6f6f9"/>
      <rect x="40" y="318" width="68" height="8" rx="2" fill="#0097a7"/>
    </g>
    <g transform="translate(960 0)">
      <rect x="0" y="0" width="300" height="360" rx="12" fill="#ffffff" stroke="#eceff1"/>
      <rect x="0" y="0" width="300" height="220" rx="12" fill="#eceff1"/>
      <rect x="24" y="244" width="180" height="16" rx="4" fill="#0a0a0a" opacity="0.85"/>
      <rect x="24" y="272" width="150" height="10" rx="3" fill="#9e9e9e"/>
      <rect x="24" y="308" width="100" height="28" rx="8" fill="#e6f6f9"/>
      <rect x="40" y="318" width="68" height="8" rx="2" fill="#0097a7"/>
    </g>
  </g>

  <g transform="translate(100 688)">
    <g>
      <rect x="0" y="0" width="300" height="260" rx="12" fill="#ffffff" stroke="#eceff1"/>
      <rect x="0" y="0" width="300" height="160" rx="12" fill="#eceff1"/>
      <rect x="24" y="184" width="180" height="14" rx="4" fill="#0a0a0a" opacity="0.85"/>
      <rect x="24" y="208" width="130" height="10" rx="3" fill="#9e9e9e"/>
    </g>
    <g transform="translate(320 0)">
      <rect x="0" y="0" width="300" height="260" rx="12" fill="#ffffff" stroke="#eceff1"/>
      <rect x="0" y="0" width="300" height="160" rx="12" fill="#eceff1"/>
      <rect x="24" y="184" width="220" height="14" rx="4" fill="#0a0a0a" opacity="0.85"/>
      <rect x="24" y="208" width="110" height="10" rx="3" fill="#9e9e9e"/>
    </g>
    <g transform="translate(640 0)">
      <rect x="0" y="0" width="300" height="260" rx="12" fill="#ffffff" stroke="#eceff1"/>
      <rect x="0" y="0" width="300" height="160" rx="12" fill="#eceff1"/>
      <rect x="24" y="184" width="180" height="14" rx="4" fill="#0a0a0a" opacity="0.85"/>
      <rect x="24" y="208" width="150" height="10" rx="3" fill="#9e9e9e"/>
    </g>
    <g transform="translate(960 0)">
      <rect x="0" y="0" width="300" height="260" rx="12" fill="#ffffff" stroke="#eceff1"/>
      <rect x="0" y="0" width="300" height="160" rx="12" fill="#eceff1"/>
      <rect x="24" y="184" width="200" height="14" rx="4" fill="#0a0a0a" opacity="0.85"/>
      <rect x="24" y="208" width="130" height="10" rx="3" fill="#9e9e9e"/>
    </g>
  </g>
</svg>
